<mxfile host="app.diagrams.net" modified="2023-06-26T08:08:27.519Z" agent="Mozilla/5.0 (Windows NT 10.0; Win64; x64) AppleWebKit/537.36 (KHTML, like Gecko) Chrome/114.0.0.0 Safari/537.36" etag="bX90oeYsRWH-un-r6wUp" version="21.3.2" type="device">
  <diagram id="C5RBs43oDa-KdzZeNtuy" name="Итоговая">
    <mxGraphModel dx="607" dy="327" grid="1" gridSize="10" guides="1" tooltips="1" connect="1" arrows="1" fold="1" page="1" pageScale="1" pageWidth="827" pageHeight="1169" math="0" shadow="0">
      <root>
        <mxCell id="WIyWlLk6GJQsqaUBKTNV-0" />
        <mxCell id="WIyWlLk6GJQsqaUBKTNV-1" parent="WIyWlLk6GJQsqaUBKTNV-0" />
        <mxCell id="eugnIKxV3WdqN3bTgCio-8" value="" style="edgeStyle=orthogonalEdgeStyle;rounded=0;orthogonalLoop=1;jettySize=auto;html=1;" edge="1" parent="WIyWlLk6GJQsqaUBKTNV-1" source="WIyWlLk6GJQsqaUBKTNV-6" target="eugnIKxV3WdqN3bTgCio-7">
          <mxGeometry relative="1" as="geometry" />
        </mxCell>
        <mxCell id="eugnIKxV3WdqN3bTgCio-11" style="edgeStyle=orthogonalEdgeStyle;rounded=0;orthogonalLoop=1;jettySize=auto;html=1;entryX=0;entryY=0.5;entryDx=0;entryDy=0;" edge="1" parent="WIyWlLk6GJQsqaUBKTNV-1" target="eugnIKxV3WdqN3bTgCio-4">
          <mxGeometry relative="1" as="geometry">
            <mxPoint x="222" y="530" as="sourcePoint" />
            <Array as="points">
              <mxPoint x="222" y="540" />
              <mxPoint x="57" y="540" />
              <mxPoint x="57" y="270" />
            </Array>
          </mxGeometry>
        </mxCell>
        <mxCell id="eugnIKxV3WdqN3bTgCio-16" style="edgeStyle=orthogonalEdgeStyle;rounded=0;orthogonalLoop=1;jettySize=auto;html=1;entryX=0;entryY=0.5;entryDx=0;entryDy=0;" edge="1" parent="WIyWlLk6GJQsqaUBKTNV-1" source="WIyWlLk6GJQsqaUBKTNV-6" target="eugnIKxV3WdqN3bTgCio-4">
          <mxGeometry relative="1" as="geometry">
            <mxPoint x="50" y="370" as="targetPoint" />
            <Array as="points">
              <mxPoint x="57" y="370" />
              <mxPoint x="57" y="270" />
            </Array>
          </mxGeometry>
        </mxCell>
        <mxCell id="WIyWlLk6GJQsqaUBKTNV-6" value="&lt;div style=&quot;background-color: rgb(255, 255, 255); font-family: Consolas, &amp;quot;Courier New&amp;quot;, monospace; font-size: 14px; line-height: 19px;&quot;&gt;if (arr[i].Length &amp;lt;= &lt;span style=&quot;color: #098658;&quot;&gt;3&lt;/span&gt;)&lt;/div&gt;" style="rhombus;whiteSpace=wrap;html=1;shadow=0;fontFamily=Helvetica;fontSize=12;align=center;strokeWidth=1;spacing=6;spacingTop=-4;" parent="WIyWlLk6GJQsqaUBKTNV-1" vertex="1">
          <mxGeometry x="112" y="320" width="220" height="100" as="geometry" />
        </mxCell>
        <mxCell id="eugnIKxV3WdqN3bTgCio-2" value="" style="edgeStyle=orthogonalEdgeStyle;rounded=0;orthogonalLoop=1;jettySize=auto;html=1;" edge="1" parent="WIyWlLk6GJQsqaUBKTNV-1" source="eugnIKxV3WdqN3bTgCio-0" target="eugnIKxV3WdqN3bTgCio-1">
          <mxGeometry relative="1" as="geometry" />
        </mxCell>
        <mxCell id="eugnIKxV3WdqN3bTgCio-0" value="Старт" style="rounded=1;whiteSpace=wrap;html=1;fontSize=12;glass=0;strokeWidth=1;shadow=0;" vertex="1" parent="WIyWlLk6GJQsqaUBKTNV-1">
          <mxGeometry x="162" y="80" width="120" height="40" as="geometry" />
        </mxCell>
        <mxCell id="eugnIKxV3WdqN3bTgCio-5" value="" style="edgeStyle=orthogonalEdgeStyle;rounded=0;orthogonalLoop=1;jettySize=auto;html=1;" edge="1" parent="WIyWlLk6GJQsqaUBKTNV-1" source="eugnIKxV3WdqN3bTgCio-1" target="eugnIKxV3WdqN3bTgCio-4">
          <mxGeometry relative="1" as="geometry" />
        </mxCell>
        <mxCell id="eugnIKxV3WdqN3bTgCio-1" value="&lt;div style=&quot;background-color: rgb(255, 255, 255); font-family: Consolas, &amp;quot;Courier New&amp;quot;, monospace; font-size: 14px; line-height: 19px;&quot;&gt;&lt;div&gt;&amp;nbsp;string[] arr = &lt;span style=&quot;color: #0000ff;&quot;&gt;new&lt;/span&gt; &lt;span style=&quot;color: #0000ff;&quot;&gt;string&lt;/span&gt;[] {&lt;span style=&quot;color: #a31515;&quot;&gt;&quot;...&quot;&lt;/span&gt;,..};&lt;/div&gt;&lt;div&gt;&lt;span style=&quot;color: #0000ff;&quot;&gt;string&lt;/span&gt;[] rez = &lt;span style=&quot;color: #0000ff;&quot;&gt;new&lt;/span&gt; &lt;span style=&quot;color: #0000ff;&quot;&gt;string&lt;/span&gt;[arr.Length];&lt;/div&gt;&lt;div&gt;&lt;span style=&quot;color: #0000ff;&quot;&gt;int&lt;/span&gt; j = &lt;span style=&quot;color: #098658;&quot;&gt;0&lt;/span&gt;;&lt;/div&gt;&lt;/div&gt;" style="shape=parallelogram;perimeter=parallelogramPerimeter;whiteSpace=wrap;html=1;fixedSize=1;" vertex="1" parent="WIyWlLk6GJQsqaUBKTNV-1">
          <mxGeometry x="42" y="150" width="360" height="70" as="geometry" />
        </mxCell>
        <mxCell id="eugnIKxV3WdqN3bTgCio-6" value="" style="edgeStyle=orthogonalEdgeStyle;rounded=0;orthogonalLoop=1;jettySize=auto;html=1;" edge="1" parent="WIyWlLk6GJQsqaUBKTNV-1" source="eugnIKxV3WdqN3bTgCio-4" target="WIyWlLk6GJQsqaUBKTNV-6">
          <mxGeometry relative="1" as="geometry" />
        </mxCell>
        <mxCell id="eugnIKxV3WdqN3bTgCio-4" value="&lt;div style=&quot;background-color: rgb(255, 255, 255); font-family: Consolas, &amp;quot;Courier New&amp;quot;, monospace; font-size: 14px; line-height: 19px;&quot;&gt;for (&lt;span style=&quot;color: #0000ff;&quot;&gt;int&lt;/span&gt; i = &lt;span style=&quot;color: #098658;&quot;&gt;0&lt;/span&gt;; i &amp;lt; arr.Length; i++)&lt;/div&gt;" style="rounded=0;whiteSpace=wrap;html=1;" vertex="1" parent="WIyWlLk6GJQsqaUBKTNV-1">
          <mxGeometry x="77" y="250" width="290" height="40" as="geometry" />
        </mxCell>
        <mxCell id="eugnIKxV3WdqN3bTgCio-10" value="" style="edgeStyle=orthogonalEdgeStyle;rounded=0;orthogonalLoop=1;jettySize=auto;html=1;" edge="1" parent="WIyWlLk6GJQsqaUBKTNV-1" source="eugnIKxV3WdqN3bTgCio-7" target="eugnIKxV3WdqN3bTgCio-9">
          <mxGeometry relative="1" as="geometry" />
        </mxCell>
        <mxCell id="eugnIKxV3WdqN3bTgCio-7" value="&lt;div style=&quot;background-color: rgb(255, 255, 255); font-family: Consolas, &amp;quot;Courier New&amp;quot;, monospace; font-size: 14px; line-height: 19px;&quot;&gt;&lt;div&gt;&amp;nbsp;rez[j] = arr[i];&lt;/div&gt;&lt;div&gt;&amp;nbsp;j++;&lt;/div&gt;&lt;/div&gt;" style="whiteSpace=wrap;html=1;shadow=0;strokeWidth=1;spacing=6;spacingTop=-4;align=center;" vertex="1" parent="WIyWlLk6GJQsqaUBKTNV-1">
          <mxGeometry x="132" y="450" width="180" height="60" as="geometry" />
        </mxCell>
        <mxCell id="eugnIKxV3WdqN3bTgCio-15" value="" style="edgeStyle=orthogonalEdgeStyle;rounded=0;orthogonalLoop=1;jettySize=auto;html=1;" edge="1" parent="WIyWlLk6GJQsqaUBKTNV-1" source="eugnIKxV3WdqN3bTgCio-9" target="eugnIKxV3WdqN3bTgCio-14">
          <mxGeometry relative="1" as="geometry" />
        </mxCell>
        <mxCell id="eugnIKxV3WdqN3bTgCio-9" value="&lt;div style=&quot;background-color: rgb(255, 255, 255); font-family: Consolas, &amp;quot;Courier New&amp;quot;, monospace; font-size: 14px; line-height: 19px;&quot;&gt;PrintArray(rez, j-1);&lt;/div&gt;" style="whiteSpace=wrap;html=1;shadow=0;strokeWidth=1;spacing=6;spacingTop=-4;" vertex="1" parent="WIyWlLk6GJQsqaUBKTNV-1">
          <mxGeometry x="122" y="568" width="200" height="47" as="geometry" />
        </mxCell>
        <mxCell id="eugnIKxV3WdqN3bTgCio-14" value="Стоп" style="rounded=1;whiteSpace=wrap;html=1;shadow=0;strokeWidth=1;spacing=6;spacingTop=-4;" vertex="1" parent="WIyWlLk6GJQsqaUBKTNV-1">
          <mxGeometry x="162" y="644" width="120" height="30" as="geometry" />
        </mxCell>
        <mxCell id="eugnIKxV3WdqN3bTgCio-17" value="нет" style="text;html=1;align=center;verticalAlign=middle;resizable=0;points=[];autosize=1;strokeColor=none;fillColor=none;" vertex="1" parent="WIyWlLk6GJQsqaUBKTNV-1">
          <mxGeometry x="70" y="348" width="40" height="30" as="geometry" />
        </mxCell>
        <mxCell id="eugnIKxV3WdqN3bTgCio-18" value="да" style="text;html=1;align=center;verticalAlign=middle;resizable=0;points=[];autosize=1;strokeColor=none;fillColor=none;" vertex="1" parent="WIyWlLk6GJQsqaUBKTNV-1">
          <mxGeometry x="220" y="418" width="40" height="30" as="geometry" />
        </mxCell>
      </root>
    </mxGraphModel>
  </diagram>
</mxfile>
